<svg width="24" height="25" viewBox="0 0 24 25" fill="none" xmlns="http://www.w3.org/2000/svg">
<g clip-path="url(#clip0_456_169)">
<path d="M19.8176 24.4614L15.7152 20.3597L13.7266 22.3483C13.555 22.5199 13.3058 22.5907 13.0681 22.5357C12.8306 22.4794 12.6397 22.305 12.5628 22.0736L8.58506 10.1411C8.50059 9.88837 8.5665 9.60961 8.75466 9.42145C8.94211 9.234 9.22158 9.16533 9.47428 9.25186L21.4068 13.2296C21.6383 13.3065 21.8126 13.4974 21.8689 13.7349C21.9246 13.9718 21.8538 14.2211 21.6815 14.3934L19.6929 16.382L23.7946 20.4843C24.0693 20.759 24.0693 21.204 23.7946 21.4786L20.8118 24.4614C20.5372 24.7361 20.0922 24.7361 19.8176 24.4614Z" fill="#0040FF"/>
<path d="M9.14062 6.29297C8.75198 6.29297 8.4375 5.97848 8.4375 5.58984V1.37109C8.4375 0.982453 8.75198 0.667969 9.14062 0.667969C9.52927 0.667969 9.84375 0.982453 9.84375 1.37109V5.58984C9.84375 5.97848 9.52927 6.29297 9.14062 6.29297Z" fill="#0040FF"/>
<path d="M5.66116 7.32243L2.67766 4.33892C2.40302 4.06428 2.40302 3.61929 2.67766 3.34465C2.9523 3.07001 3.39729 3.07001 3.67193 3.34465L6.65538 6.32811C6.93002 6.60275 6.93002 7.04774 6.65538 7.32238C6.38074 7.59707 5.9358 7.59707 5.66116 7.32243Z" fill="#0040FF"/>
<path d="M2.67766 16.2716C2.40302 15.9969 2.40302 15.552 2.67766 15.2773L5.66111 12.2939C5.93575 12.0192 6.38074 12.0192 6.65538 12.2939C6.93002 12.5685 6.93002 13.0135 6.65538 13.2881L3.67193 16.2716C3.39729 16.5462 2.95235 16.5462 2.67766 16.2716Z" fill="#0040FF"/>
<path d="M11.6259 7.32236C11.3513 7.04772 11.3513 6.60274 11.6259 6.3281L14.6094 3.34465C14.884 3.07001 15.329 3.07001 15.6036 3.34465C15.8783 3.61929 15.8783 4.06428 15.6036 4.33892L12.6202 7.32236C12.3455 7.597 11.9006 7.597 11.6259 7.32236Z" fill="#0040FF"/>
<path d="M4.92188 10.5117H0.703125C0.314484 10.5117 0 10.1972 0 9.80859C0 9.41995 0.314484 9.10547 0.703125 9.10547H4.92188C5.31052 9.10547 5.625 9.41995 5.625 9.80859C5.625 10.1972 5.31052 10.5117 4.92188 10.5117Z" fill="#0040FF"/>
</g>
<defs>
<clipPath id="clip0_456_169">
<rect width="24" height="24" fill="white" transform="translate(0 0.667969)"/>
</clipPath>
</defs>
</svg>
