<svg width="16" height="16" viewBox="0 0 16 16" fill="none" xmlns="http://www.w3.org/2000/svg">
<path d="M15.7396 4.15008C15.6219 4.05837 15.4746 4.01302 15.3253 4.01302H14.4979C14.2303 4.01302 14.0059 4.21672 13.9821 4.48327C13.7391 7.20554 11.4522 9.33949 8.66675 9.33949C5.88132 9.33949 3.59436 7.20551 3.35142 4.48327C3.32763 4.21672 3.10323 4.01302 2.83565 4.01302L2.64981 1.94271C2.61945 1.60415 2.33567 1.34473 1.99576 1.34473H0.677309C0.321234 1.34473 0.0179739 1.62159 0.00530945 1.97742C-0.00798044 2.35104 0.290933 2.65808 0.661549 2.65808H1.3954L2.11518 10.677C2.11534 10.6865 2.11487 10.6957 2.1154 10.7053C2.11687 10.7305 2.12015 10.7551 2.12434 10.7794L2.15067 11.0726C2.15117 11.0781 2.15174 11.0836 2.15239 11.0891C2.2322 11.7805 2.58552 12.3795 3.09644 12.7843C2.80835 13.1522 2.64618 13.6232 2.67705 14.1322C2.73815 15.1397 3.5585 15.9493 4.56662 15.9977C5.70855 16.0525 6.65507 15.1393 6.65507 14.0092C6.65507 13.7714 6.61301 13.5433 6.53621 13.3316H10.1303C10.0445 13.568 10.0021 13.825 10.0132 14.093C10.0555 15.1169 10.8831 15.9497 11.9067 15.9978C13.0389 16.0511 13.9785 15.1528 13.993 14.0355C14.0075 12.9212 13.0881 12.0183 11.9737 12.0183H4.66859C4.16977 12.0183 3.73508 11.7173 3.54746 11.2789L14.042 10.6621C14.3285 10.6453 14.5709 10.4443 14.6406 10.1658L15.9749 4.82893C16.0369 4.58077 15.9499 4.31391 15.7396 4.15008Z" fill="#3D3D3D"/>
<path d="M12.6497 3.9824C12.6315 1.78507 10.8594 0 8.65789 0C6.45636 0 4.68424 1.78507 4.66608 3.9824C4.67305 3.98331 4.6591 3.98156 4.66608 3.9824C4.66601 3.99263 4.6657 4.00279 4.6657 4.01302C4.6657 6.21432 6.45658 8.00521 8.65789 8.00521C10.8592 8.00521 12.6501 6.21432 12.6501 4.01302C12.6501 4.00279 12.6498 3.99263 12.6497 3.9824C12.6566 3.98156 12.6427 3.98331 12.6497 3.9824ZM9.78931 4.2158C10.0458 4.47225 10.0457 4.88805 9.78928 5.1445C9.66107 5.27271 9.49299 5.33681 9.32495 5.33681C9.15687 5.33681 8.98886 5.27271 8.86058 5.14447L8.65786 4.94175L8.45513 5.14447C8.32689 5.27271 8.15882 5.33681 7.99077 5.33681C7.82272 5.33681 7.65468 5.27271 7.52644 5.1445C7.26999 4.88805 7.26996 4.47225 7.5264 4.2158L7.72916 4.01305L7.5264 3.81029C7.26996 3.55384 7.26999 3.13804 7.52644 2.88159C7.78288 2.62521 8.19865 2.62514 8.4551 2.88159L8.65783 3.08432L8.86055 2.88159C9.117 2.62514 9.53277 2.62514 9.78922 2.88159C10.0457 3.13804 10.0457 3.55384 9.78925 3.81029L9.58649 4.01305L9.78931 4.2158Z" fill="#3D3D3D"/>
</svg>
