<svg width="16" height="14" viewBox="0 0 16 14" fill="none" xmlns="http://www.w3.org/2000/svg">
<path d="M1.08496 10.7063V13.2999C1.08496 13.4577 1.21316 13.5892 1.37423 13.5892H3.3794C3.53718 13.5892 3.66867 13.461 3.66867 13.2999V8.7373L2.21246 10.1935C1.90346 10.4992 1.509 10.6767 1.08496 10.7063Z" fill="#3D3D3D"/>
<path d="M4.66797 8.7041V13.2996C4.66797 13.4573 4.79617 13.5888 4.95724 13.5888H6.96241C7.12019 13.5888 7.25168 13.4606 7.25168 13.2996V10.5942C6.79476 10.5844 6.36743 10.4036 6.04529 10.0814L4.66797 8.7041Z" fill="#3D3D3D"/>
<path d="M8.25098 10.3081V13.2994C8.25098 13.4572 8.37918 13.5887 8.54025 13.5887H10.5454C10.7032 13.5887 10.8347 13.4605 10.8347 13.2994V7.78027L8.53696 10.078C8.44821 10.1668 8.35288 10.2424 8.25098 10.3081Z" fill="#3D3D3D"/>
<path d="M14.2238 4.3877L11.834 6.77746V13.2992C11.834 13.457 11.9622 13.5885 12.1233 13.5885H14.1284C14.2862 13.5885 14.4177 13.4603 14.4177 13.2992V4.56849C14.352 4.51261 14.3026 4.4633 14.2665 4.43043L14.2238 4.3877Z" fill="#3D3D3D"/>
<path d="M15.8638 0.154497C15.7685 0.0525945 15.6239 0 15.4398 0C15.4234 0 15.4036 0 15.3872 0C14.4537 0.0427331 13.5234 0.0887534 12.5898 0.131486C12.4649 0.138061 12.294 0.144635 12.1592 0.279409C12.1165 0.322142 12.0836 0.371449 12.0573 0.430618C11.9192 0.72975 12.1132 0.923693 12.2052 1.01573L12.4386 1.25241C12.5997 1.41677 12.7641 1.58112 12.9284 1.7422L7.28764 7.38625L4.75324 4.85185C4.60203 4.70064 4.39822 4.61518 4.18127 4.61518C3.96432 4.61518 3.7638 4.70064 3.61259 4.85185L0.236676 8.22448C-0.0788919 8.54005 -0.0788919 9.04956 0.236676 9.36513L0.387885 9.51633C0.539095 9.66754 0.742899 9.75301 0.959851 9.75301C1.1768 9.75301 1.37732 9.66754 1.52853 9.51633L4.18127 6.86359L6.71567 9.398C6.86688 9.54921 7.07069 9.63467 7.28764 9.63467C7.50459 9.63467 7.70511 9.54921 7.85961 9.398L14.2236 3.03405L14.9434 3.75065C15.0289 3.83612 15.1472 3.95446 15.328 3.95446C15.4036 3.95446 15.4792 3.93473 15.5581 3.892C15.6107 3.86242 15.6568 3.82954 15.6962 3.7901C15.8375 3.64875 15.8638 3.46796 15.8704 3.32661C15.8967 2.72177 15.9263 2.11693 15.9559 1.50881L15.9986 0.598263C16.0085 0.407608 15.9657 0.259686 15.8638 0.154497Z" fill="#3D3D3D"/>
</svg>
