<svg width="24" height="24" viewBox="0 0 24 24" fill="none" xmlns="http://www.w3.org/2000/svg">
<g clip-path="url(#clip0_441_544)">
<path d="M19.8176 23.794L15.7152 19.6923L13.7266 21.6808C13.555 21.8524 13.3058 21.9232 13.0681 21.8682C12.8306 21.8119 12.6397 21.6375 12.5628 21.4061L8.58506 9.4736C8.50059 9.22089 8.5665 8.94213 8.75466 8.75397C8.94211 8.56652 9.22158 8.49785 9.47428 8.58438L21.4068 12.5621C21.6383 12.639 21.8126 12.8299 21.8689 13.0675C21.9246 13.3044 21.8538 13.5536 21.6815 13.726L19.6929 15.7145L23.7946 19.8168C24.0693 20.0915 24.0693 20.5365 23.7946 20.8111L20.8118 23.7939C20.5372 24.0686 20.0922 24.0686 19.8176 23.794Z" fill="#3D3D3D"/>
<path d="M9.14062 5.625C8.75198 5.625 8.4375 5.31052 8.4375 4.92188V0.703125C8.4375 0.314484 8.75198 0 9.14062 0C9.52927 0 9.84375 0.314484 9.84375 0.703125V4.92188C9.84375 5.31052 9.52927 5.625 9.14062 5.625Z" fill="#3D3D3D"/>
<path d="M5.66116 6.65494L2.67766 3.67144C2.40302 3.3968 2.40302 2.95181 2.67766 2.67717C2.9523 2.40253 3.39729 2.40253 3.67193 2.67717L6.65538 5.66063C6.93002 5.93527 6.93002 6.38026 6.65538 6.6549C6.38074 6.92959 5.9358 6.92959 5.66116 6.65494Z" fill="#3D3D3D"/>
<path d="M2.67766 15.6041C2.40302 15.3295 2.40302 14.8845 2.67766 14.6098L5.66111 11.6264C5.93575 11.3517 6.38074 11.3517 6.65538 11.6264C6.93002 11.901 6.93002 12.346 6.65538 12.6207L3.67193 15.6041C3.39729 15.8787 2.95235 15.8787 2.67766 15.6041Z" fill="#3D3D3D"/>
<path d="M11.6259 6.65488C11.3513 6.38024 11.3513 5.93526 11.6259 5.66062L14.6094 2.67717C14.884 2.40253 15.329 2.40253 15.6036 2.67717C15.8783 2.95181 15.8783 3.3968 15.6036 3.67144L12.6202 6.65488C12.3455 6.92952 11.9006 6.92952 11.6259 6.65488Z" fill="#3D3D3D"/>
<path d="M4.92188 9.84375H0.703125C0.314484 9.84375 0 9.52927 0 9.14062C0 8.75198 0.314484 8.4375 0.703125 8.4375H4.92188C5.31052 8.4375 5.625 8.75198 5.625 9.14062C5.625 9.52927 5.31052 9.84375 4.92188 9.84375Z" fill="#3D3D3D"/>
</g>
<defs>
<clipPath id="clip0_441_544">
<rect width="24" height="24" fill="white"/>
</clipPath>
</defs>
</svg>
