<svg width="12" height="12" viewBox="0 0 12 12" fill="none" xmlns="http://www.w3.org/2000/svg">
<g clip-path="url(#clip0_625_120)">
<path d="M11.355 9.03545e-07H0.656689C0.46788 -0.000356014 0.294894 0.105053 0.20864 0.272922C0.121195 0.443052 0.136543 0.647922 0.248257 0.803299L4.16767 6.32466C4.16898 6.32657 4.17041 6.32835 4.17172 6.33026C4.31413 6.52251 4.39122 6.75546 4.39158 6.99471V11.4963C4.39075 11.6295 4.44309 11.7576 4.53696 11.8522C4.63095 11.9467 4.75873 12 4.89198 12C4.95967 11.9999 5.02677 11.9864 5.08935 11.9604L7.29176 11.1207C7.48902 11.0603 7.62001 10.8741 7.62001 10.65V6.99471C7.62036 6.75546 7.69746 6.52251 7.83975 6.33026C7.84106 6.32835 7.84248 6.32657 7.84379 6.32466L11.7633 0.80318C11.875 0.647922 11.8904 0.443171 11.8029 0.273041C11.7168 0.105053 11.5437 -0.000356014 11.355 9.03545e-07Z" fill="black"/>
</g>
<defs>
<clipPath id="clip0_625_120">
<rect width="12" height="12" fill="white"/>
</clipPath>
</defs>
</svg>
