<svg width="20" height="20" viewBox="0 0 20 20" fill="none" xmlns="http://www.w3.org/2000/svg">
<path d="M8.92899 1.78711H2.14328C1.94685 1.78711 1.78613 1.94782 1.78613 2.14425V8.92997C1.78613 9.1264 1.94685 9.28711 2.14328 9.28711H8.92899C9.12542 9.28711 9.28613 9.1264 9.28613 8.92997V2.14425C9.28613 1.94782 9.12542 1.78711 8.92899 1.78711ZM7.76828 7.76925H3.30399V3.30497H7.76828V7.76925ZM17.8576 1.78711H11.0718C10.8754 1.78711 10.7147 1.94782 10.7147 2.14425V8.92997C10.7147 9.1264 10.8754 9.28711 11.0718 9.28711H17.8576C18.054 9.28711 18.2147 9.1264 18.2147 8.92997V2.14425C18.2147 1.94782 18.054 1.78711 17.8576 1.78711ZM16.6968 7.76925H12.2326V3.30497H16.6968V7.76925ZM8.92899 10.7157H2.14328C1.94685 10.7157 1.78613 10.8764 1.78613 11.0728V17.8585C1.78613 18.055 1.94685 18.2157 2.14328 18.2157H8.92899C9.12542 18.2157 9.28613 18.055 9.28613 17.8585V11.0728C9.28613 10.8764 9.12542 10.7157 8.92899 10.7157ZM7.76828 16.6978H3.30399V12.2335H7.76828V16.6978ZM17.8576 10.7157H11.0718C10.8754 10.7157 10.7147 10.8764 10.7147 11.0728V17.8585C10.7147 18.055 10.8754 18.2157 11.0718 18.2157H17.8576C18.054 18.2157 18.2147 18.055 18.2147 17.8585V11.0728C18.2147 10.8764 18.054 10.7157 17.8576 10.7157ZM16.6968 16.6978H12.2326V12.2335H16.6968V16.6978Z" fill="black" fill-opacity="0.85"/>
</svg>
