<svg width="17" height="17" viewBox="0 0 17 17" fill="none" xmlns="http://www.w3.org/2000/svg">
<circle cx="8.06934" cy="8.36328" r="8" fill="#F2F2F2"/>
<path d="M8.06934 6.36328C8.61934 6.36328 9.06934 5.91328 9.06934 5.36328C9.06934 4.81328 8.61934 4.36328 8.06934 4.36328C7.51934 4.36328 7.06934 4.81328 7.06934 5.36328C7.06934 5.91328 7.51934 6.36328 8.06934 6.36328ZM8.06934 7.36328C7.51934 7.36328 7.06934 7.81328 7.06934 8.36328C7.06934 8.91328 7.51934 9.36328 8.06934 9.36328C8.61934 9.36328 9.06934 8.91328 9.06934 8.36328C9.06934 7.81328 8.61934 7.36328 8.06934 7.36328ZM8.06934 10.3633C7.51934 10.3633 7.06934 10.8133 7.06934 11.3633C7.06934 11.9133 7.51934 12.3633 8.06934 12.3633C8.61934 12.3633 9.06934 11.9133 9.06934 11.3633C9.06934 10.8133 8.61934 10.3633 8.06934 10.3633Z" fill="black"/>
</svg>
