<svg width="29" height="30" viewBox="0 0 29 30" fill="none" xmlns="http://www.w3.org/2000/svg">
<path d="M11.9996 6C5.37247 6 0 11.3726 0 17.9998C0 24.6267 5.37247 30 11.9996 30C18.6266 30 23.9997 24.627 23.9997 17.9998C23.9994 11.3726 18.6268 6 11.9996 6ZM18.8524 19.5055C18.3119 22.9399 15.3373 25.3984 11.9644 25.3984C11.6055 25.3984 11.2422 25.3704 10.8766 25.3131C7.07692 24.7143 4.47169 21.136 5.06928 17.3367C5.35895 15.4958 6.34805 13.8779 7.85435 12.7811C9.15113 11.837 10.6973 11.3777 12.2772 11.4525L11.115 10.3458L11.8767 9.54658L13.6599 11.2457L13.6603 11.2454L14.4578 12.0065L13.6968 12.8057L13.6964 12.8051L11.9975 14.5887L11.1991 13.827L12.2756 12.698C10.959 12.6233 9.6672 13.0012 8.58706 13.7875C7.3494 14.6887 6.53685 16.0178 6.29886 17.5302C5.80814 20.6517 7.94859 23.5915 11.0702 24.0833C14.1917 24.5738 17.1313 22.434 17.6224 19.3121C17.9467 17.2513 17.1244 15.1746 15.4757 13.8921L16.2405 12.9096C18.2462 14.47 19.2471 16.9974 18.8524 19.5055ZM9.68736 20.0352L9.64648 19.9395L10.6723 19.5047L10.7128 19.6005C10.8759 19.9877 11.4398 20.2796 12.0243 20.2796C12.287 20.2796 13.1439 20.2317 13.1439 19.6125C13.1439 19.2882 12.7775 19.094 11.9907 19.0012C11.1078 18.9023 9.89776 18.767 9.89776 17.4343C9.89776 16.6172 10.509 16.046 11.5384 15.8939V15.2658H12.644V15.8966C13.1219 15.9806 13.7524 16.1888 14.1041 16.9081L14.1508 17.0033L13.2065 17.4401L13.1587 17.3607C12.9934 17.0877 12.507 16.8733 12.052 16.8733C11.7452 16.8733 11.0317 16.9281 11.0317 17.4342C11.0317 17.798 11.4914 17.8817 12.0928 17.9537C13.0329 18.0695 14.3199 18.228 14.3199 19.6123C14.3199 20.6311 13.4937 21.1674 12.6443 21.2625V21.9787H11.5388V21.2969C10.6469 21.192 9.99111 20.7461 9.68736 20.0352Z" fill="#3D3D3D"/>
<path d="M17.8681 5.6804C18.2527 5.6247 18.5189 5.2684 18.4632 4.88377L17.8586 0.708563C17.8029 0.323934 17.4466 0.0577639 17.0619 0.11346C16.6773 0.169156 16.4111 0.525462 16.4668 0.910091L17.0714 5.0853C17.1271 5.46992 17.4834 5.73609 17.8681 5.6804Z" fill="#3D3D3D"/>
<path d="M21.9443 6.73917L24.9278 3.75567C25.2024 3.48103 25.2024 3.03604 24.9278 2.7614C24.6532 2.48676 24.2082 2.48676 23.9335 2.7614L20.9501 5.74486C20.6754 6.0195 20.6754 6.46449 20.9501 6.73913C21.2247 7.01381 21.6697 7.01381 21.9443 6.73917Z" fill="#3D3D3D"/>
<path d="M27.7863 10.1931L23.5692 10.3107C23.1807 10.3215 22.8576 10.0159 22.8467 9.62741C22.8359 9.23892 23.1415 8.9158 23.53 8.90496L27.7471 8.78739C28.1356 8.77656 28.4587 9.08216 28.4696 9.47065C28.4804 9.85914 28.1748 10.1823 27.7863 10.1931Z" fill="#3D3D3D"/>
</svg>
