<svg width="20" height="21" viewBox="0 0 20 21" fill="none" xmlns="http://www.w3.org/2000/svg">
<g clip-path="url(#clip0_456_167)">
<path d="M18.925 0.66797H1.09448C0.7798 0.667375 0.491491 0.843057 0.347733 1.12284C0.201992 1.40639 0.227571 1.74784 0.413762 2.0068L6.94612 11.2091C6.9483 11.2123 6.95068 11.2152 6.95286 11.2184C7.19021 11.5388 7.3187 11.9271 7.3193 12.3258V19.8284C7.31791 20.0505 7.40516 20.2641 7.5616 20.4217C7.71825 20.5791 7.93121 20.668 8.15329 20.668C8.26612 20.6678 8.37795 20.6454 8.48225 20.6019L12.1529 19.2024C12.4817 19.1019 12.7 18.7916 12.7 18.418V12.3258C12.7006 11.9271 12.8291 11.5388 13.0662 11.2184C13.0684 11.2152 13.0708 11.2123 13.073 11.2091L19.6055 2.0066C19.7917 1.74784 19.8173 1.40659 19.6716 1.12304C19.528 0.843057 19.2395 0.667375 18.925 0.66797Z" fill="#008751"/>
</g>
<defs>
<clipPath id="clip0_456_167">
<rect width="20" height="20" fill="white" transform="translate(0 0.667969)"/>
</clipPath>
</defs>
</svg>
