<svg width="17" height="17" viewBox="0 0 17 17" fill="none" xmlns="http://www.w3.org/2000/svg">
<path d="M15.2552 12.6749H13.9213C13.8303 12.6749 13.7449 12.7147 13.688 12.7849C13.5552 12.9462 13.4129 13.1018 13.263 13.2498C12.6499 13.8634 11.9238 14.3525 11.1247 14.6899C10.2968 15.0395 9.40699 15.2189 8.50829 15.2173C7.59947 15.2173 6.71912 15.039 5.89188 14.6899C5.09279 14.3525 4.36664 13.8634 3.7536 13.2498C3.13947 12.6382 2.64977 11.9133 2.31164 11.1153C1.96063 10.2881 1.78418 9.40961 1.78418 8.5008C1.78418 7.59198 1.96253 6.71352 2.31164 5.88629C2.64936 5.08752 3.13508 4.36843 3.7536 3.7518C4.37213 3.13517 5.09121 2.64946 5.89188 2.31173C6.71912 1.96263 7.59947 1.78428 8.50829 1.78428C9.41711 1.78428 10.2975 1.96073 11.1247 2.31173C11.9254 2.64946 12.6445 3.13517 13.263 3.7518C13.4129 3.90169 13.5533 4.05727 13.688 4.21664C13.7449 4.28685 13.8322 4.32669 13.9213 4.32669H15.2552C15.3747 4.32669 15.4487 4.19388 15.3823 4.09332C13.927 1.83171 11.3808 0.334725 8.48742 0.342314C3.94144 0.353698 0.296683 4.04399 0.342219 8.58428C0.387755 13.0525 4.02682 16.6593 8.50829 16.6593C11.3941 16.6593 13.9289 15.1642 15.3823 12.9083C15.4468 12.8077 15.3747 12.6749 15.2552 12.6749ZM16.9419 8.38127L14.2496 6.25627C14.149 6.17658 14.0029 6.24868 14.0029 6.3758V7.81776H8.04534C7.96186 7.81776 7.89356 7.88606 7.89356 7.96955V9.03205C7.89356 9.11553 7.96186 9.18383 8.04534 9.18383H14.0029V10.6258C14.0029 10.7529 14.1509 10.825 14.2496 10.7453L16.9419 8.62033C16.96 8.60613 16.9747 8.58799 16.9848 8.56728C16.9949 8.54657 17.0001 8.52383 17.0001 8.5008C17.0001 8.47776 16.9949 8.45502 16.9848 8.43431C16.9747 8.4136 16.96 8.39546 16.9419 8.38127Z" fill="black" fill-opacity="0.85"/>
</svg>
