<svg width="22" height="22" viewBox="0 0 22 22" fill="none" xmlns="http://www.w3.org/2000/svg">
<path d="M12.7482 7.99633C13.4375 7.99633 13.9963 7.43751 13.9963 6.74817C13.9963 6.05882 13.4375 5.5 12.7482 5.5C12.0588 5.5 11.5 6.05882 11.5 6.74817C11.5 7.43751 12.0588 7.99633 12.7482 7.99633ZM5.25 2C3.45507 2 2 3.45507 2 5.25V14.25C2 16.0449 3.45507 17.5 5.25 17.5H14.25C16.0449 17.5 17.5 16.0449 17.5 14.25V5.25C17.5 3.45507 16.0449 2 14.25 2H5.25ZM3.5 5.25C3.5 4.2835 4.2835 3.5 5.25 3.5H14.25C15.2165 3.5 16 4.2835 16 5.25V14.25C16 14.4812 15.9552 14.7018 15.8738 14.9038L11.2867 10.6128C10.4217 9.80361 9.07751 9.80361 8.21252 10.6128L3.62602 14.9033C3.54474 14.7015 3.5 14.481 3.5 14.25V5.25ZM10.262 11.7082L14.7669 15.9224C14.6035 15.9728 14.4299 16 14.25 16H5.25C5.06985 16 4.89607 15.9728 4.73252 15.9222L9.23725 11.7082C9.52558 11.4385 9.97365 11.4385 10.262 11.7082ZM7.74995 20.0002C6.59927 20.0002 5.58826 19.4022 5.01074 18.5H7.72444L7.74995 18.5002H14.7499C16.821 18.5002 18.5 16.8212 18.5 14.7502V5.01108C19.402 5.58861 20 6.59956 20 7.75017V14.7502C20 17.6497 17.6494 20.0002 14.7499 20.0002H7.74995Z" fill="#212121"/>
</svg>
