<svg width="24" height="24" viewBox="0 0 24 24" fill="none" xmlns="http://www.w3.org/2000/svg">
<path d="M0.327151 12.031C0.0691603 12.126 -0.0638194 12.412 0.0301617 12.671L0.344166 13.535L2.73504 11.144L0.327151 12.031Z" fill="#3D3D3D"/>
<path d="M2.58984 19.7109L4.02979 23.6708C4.07479 23.7958 4.16877 23.8978 4.28877 23.9528C4.35575 23.9838 4.42775 23.9998 4.49975 23.9998C4.55876 23.9998 4.61674 23.9898 4.67275 23.9688L6.26171 23.3829L2.58984 19.7109Z" fill="#3D3D3D"/>
<path d="M23.9693 16.3299L22.3213 11.7991L18.3665 15.7539L20.3264 15.0319C20.5834 14.9339 20.8734 15.0679 20.9684 15.3279C21.0644 15.5869 20.9314 15.8749 20.6724 15.9699L18.1825 16.8879C18.1255 16.9089 18.0675 16.9189 18.0094 16.9189C17.8064 16.9189 17.6144 16.7938 17.5405 16.5919C17.5395 16.5889 17.5405 16.5859 17.5395 16.5829L13.3486 20.7737L23.6723 16.9699C23.9312 16.8749 24.0642 16.5889 23.9693 16.3299Z" fill="#3D3D3D"/>
<path d="M23.8535 8.14623L15.8537 0.146489C15.6587 -0.0485042 15.3417 -0.0485042 15.1467 0.146489L0.147222 15.146C-0.0477718 15.341 -0.0477718 15.658 0.147222 15.853L8.14697 23.8527C8.24395 23.9507 8.37196 23.9997 8.49997 23.9997C8.62798 23.9997 8.75595 23.9507 8.85396 23.8537L23.8535 8.85421C24.0484 8.65823 24.0484 8.34221 23.8535 8.14623ZM5.85406 13.854L3.85411 15.8539C3.7561 15.9509 3.62813 16 3.50012 16C3.37211 16 3.24415 15.951 3.14614 15.8539C2.95114 15.659 2.95114 15.342 3.14614 15.147L5.14608 13.147C5.34108 12.952 5.65808 12.952 5.85308 13.147C6.04807 13.3421 6.04905 13.658 5.85406 13.854ZM14.4888 14.489C14.1348 14.843 13.6538 15.013 13.1188 15.013C12.2348 15.013 11.2018 14.55 10.3379 13.685C9.70588 13.053 9.2619 12.2971 9.08893 11.5571C8.89694 10.7321 9.05495 10.0142 9.5339 9.5342C10.0129 9.05421 10.7309 8.8962 11.5568 9.08923C12.2968 9.26224 13.0528 9.70519 13.6847 10.3382C15.0737 11.7261 15.4277 13.55 14.4888 14.489ZM20.8536 8.85421L18.8536 10.8542C18.7556 10.9511 18.6276 11.0002 18.4996 11.0002C18.3716 11.0002 18.2436 10.9512 18.1456 10.8542C17.9506 10.6592 17.9506 10.3422 18.1456 10.1472L20.1456 8.14721C20.3406 7.95222 20.6576 7.95222 20.8526 8.14721C21.0476 8.34221 21.0485 8.65823 20.8536 8.85421Z" fill="#3D3D3D"/>
</svg>
