<svg width="26" height="27" viewBox="0 0 26 27" fill="none" xmlns="http://www.w3.org/2000/svg">
<g clip-path="url(#clip0_758_140)">
<path d="M18.925 7H1.09448C0.7798 6.99941 0.491491 7.17509 0.347733 7.45487C0.201992 7.73842 0.227571 8.07987 0.413762 8.33883L6.94612 17.5411C6.9483 17.5443 6.95068 17.5473 6.95286 17.5504C7.19021 17.8709 7.3187 18.2591 7.3193 18.6579V26.1605C7.31791 26.3825 7.40516 26.5961 7.5616 26.7537C7.71825 26.9112 7.93121 27 8.15329 27C8.26612 26.9998 8.37795 26.9774 8.48225 26.934L12.1529 25.5345C12.4817 25.4339 12.7 25.1236 12.7 24.75V18.6579C12.7006 18.2591 12.8291 17.8709 13.0662 17.5504C13.0684 17.5473 13.0708 17.5443 13.073 17.5411L19.6055 8.33864C19.7917 8.07987 19.8173 7.73862 19.6716 7.45507C19.528 7.17509 19.2395 6.99941 18.925 7Z" fill="#3D3D3D"/>
</g>
<circle cx="18.5" cy="7.5" r="6.5" fill="#3D3D3D"/>
<path d="M18.4998 0C14.3644 0 11 3.36434 11 7.49966C11 11.6353 14.3644 14.9998 18.4998 14.9998C22.6351 14.9998 25.9995 11.6352 25.9995 7.49966C25.9995 3.36434 22.6351 0 18.4998 0ZM18.4998 13.9247C14.9572 13.9247 12.0751 11.0424 12.0751 7.49966C12.0751 3.95715 14.9572 1.0751 18.4998 1.0751C22.0423 1.0751 24.9244 3.95715 24.9244 7.49966C24.9244 11.0424 22.0423 13.9247 18.4998 13.9247Z" fill="#F2F2F2"/>
<path d="M22.3554 7.37401H18.831V3.52144C18.831 3.22457 18.5903 2.98389 18.2934 2.98389C17.9965 2.98389 17.7559 3.22457 17.7559 3.52144V7.91156C17.7559 8.20843 17.9965 8.44911 18.2934 8.44911H22.3554C22.6523 8.44911 22.893 8.20843 22.893 7.91156C22.893 7.61469 22.6523 7.37401 22.3554 7.37401Z" fill="#F2F2F2"/>
<defs>
<clipPath id="clip0_758_140">
<rect width="20" height="20" fill="white" transform="translate(0 7)"/>
</clipPath>
</defs>
</svg>
