<svg width="24" height="24" viewBox="0 0 24 24" fill="none" xmlns="http://www.w3.org/2000/svg">
<path d="M11.9996 0C5.37247 0 0 5.37263 0 11.9998C0 18.6267 5.37247 24 11.9996 24C18.6266 24 23.9997 18.627 23.9997 11.9998C23.9994 5.37263 18.6268 0 11.9996 0ZM18.8524 13.5055C18.3119 16.9399 15.3373 19.3984 11.9644 19.3984C11.6055 19.3984 11.2422 19.3704 10.8766 19.3131C7.07692 18.7143 4.47169 15.136 5.06928 11.3367C5.35895 9.49584 6.34805 7.87787 7.85435 6.78109C9.15113 5.83702 10.6973 5.37767 12.2772 5.45255L11.115 4.34585L11.8767 3.54658L13.6599 5.24567L13.6603 5.24543L14.4578 6.00646L13.6968 6.80573L13.6964 6.80509L11.9975 8.58866L11.1991 7.82699L12.2756 6.69805C10.959 6.62333 9.6672 7.00116 8.58706 7.78755C7.3494 8.68865 6.53685 10.0178 6.29886 11.5302C5.80814 14.6517 7.94859 17.5915 11.0702 18.0833C14.1917 18.5738 17.1313 16.434 17.6224 13.3121C17.9467 11.2513 17.1244 9.17457 15.4757 7.89211L16.2405 6.90964C18.2462 8.47002 19.2471 10.9974 18.8524 13.5055ZM9.68736 14.0352L9.64648 13.9395L10.6723 13.5047L10.7128 13.6005C10.8759 13.9877 11.4398 14.2796 12.0243 14.2796C12.287 14.2796 13.1439 14.2317 13.1439 13.6125C13.1439 13.2882 12.7775 13.094 11.9907 13.0012C11.1078 12.9023 9.89776 12.767 9.89776 11.4343C9.89776 10.6172 10.509 10.046 11.5384 9.89392V9.26585H12.644V9.89664C13.1219 9.98063 13.7524 10.1888 14.1041 10.9081L14.1508 11.0033L13.2065 11.4401L13.1587 11.3607C12.9934 11.0877 12.507 10.8733 12.052 10.8733C11.7452 10.8733 11.0317 10.9281 11.0317 11.4342C11.0317 11.798 11.4914 11.8817 12.0928 11.9537C13.0329 12.0695 14.3199 12.228 14.3199 13.6123C14.3199 14.6311 13.4937 15.1674 12.6443 15.2625V15.9787H11.5388V15.2969C10.6469 15.192 9.99111 14.7461 9.68736 14.0352Z" fill="#3D3D3D"/>
</svg>
