<svg width="24" height="24" viewBox="0 0 24 24" fill="none" xmlns="http://www.w3.org/2000/svg">
<g clip-path="url(#clip0_443_588)">
<path d="M2.35294 5.03532L3.62353 3.3412L2.49412 2.49414L0.0588235 5.7412L2.49412 8.98826L3.62353 8.1412L2.35294 6.44708H22.5882V20.0941H1.41176V9.97649H0V21.5059H24V5.03532H2.35294Z" fill="#3D3D3D"/>
<path d="M2.82324 17.2705H4.23501V18.6823H2.82324V17.2705Z" fill="#3D3D3D"/>
<path d="M19.7646 7.85889H21.1764V9.27065H19.7646V7.85889Z" fill="#3D3D3D"/>
<path d="M19.7646 17.2705H21.1764V18.6823H19.7646V17.2705Z" fill="#3D3D3D"/>
<path d="M11.9997 14.4472C12.6495 14.4472 13.1762 13.9205 13.1762 13.2707C13.1762 12.621 12.6495 12.0942 11.9997 12.0942C11.35 12.0942 10.8232 12.621 10.8232 13.2707C10.8232 13.9205 11.35 14.4472 11.9997 14.4472Z" fill="#3D3D3D"/>
<path d="M20.4703 10.6824C19.3026 10.6824 18.3527 9.73244 18.3527 8.56477V7.85889H5.64677V8.56477C5.64677 9.73244 4.6968 10.6824 3.52912 10.6824H2.82324V15.8589H3.52912C4.6968 15.8589 5.64677 16.8089 5.64677 17.9765V18.6824H18.3527V17.9765C18.3527 16.8089 19.3026 15.8589 20.4703 15.8589H21.1762V10.6824H20.4703ZM11.9997 15.8589C10.5726 15.8589 9.41148 14.6978 9.41148 13.2707C9.41148 11.8435 10.5726 10.6824 11.9997 10.6824C13.4269 10.6824 14.5879 11.8435 14.5879 13.2707C14.5879 14.6978 13.4269 15.8589 11.9997 15.8589Z" fill="#3D3D3D"/>
</g>
<defs>
<clipPath id="clip0_443_588">
<rect width="24" height="24" fill="white"/>
</clipPath>
</defs>
</svg>
