<svg width="17" height="17" viewBox="0 0 17 17" fill="none" xmlns="http://www.w3.org/2000/svg">
<g clip-path="url(#clip0_377_442)">
<path d="M16.3318 10.66L15.089 9.59748C15.1478 9.23699 15.1782 8.86891 15.1782 8.50083C15.1782 8.13275 15.1478 7.76467 15.089 7.40418L16.3318 6.34168C16.4255 6.26143 16.4926 6.15455 16.5241 6.03526C16.5556 5.91596 16.5501 5.78989 16.5082 5.67382L16.4911 5.62449C16.149 4.66829 15.6367 3.78188 14.979 3.00808L14.9448 2.96824C14.865 2.87442 14.7587 2.80698 14.6398 2.7748C14.5209 2.74262 14.3951 2.74722 14.2789 2.78799L12.7363 3.33632C12.1671 2.86958 11.5315 2.5015 10.8447 2.24346L10.5468 0.630737C10.5244 0.509389 10.4655 0.397751 10.3781 0.310655C10.2906 0.223559 10.1787 0.165128 10.0573 0.143126L10.0061 0.133639C9.01758 -0.0447091 7.97785 -0.0447091 6.98935 0.133639L6.93812 0.143126C6.81668 0.165128 6.70482 0.223559 6.61738 0.310655C6.52995 0.397751 6.47108 0.509389 6.44861 0.630737L6.14883 2.25105C5.46748 2.50914 4.83298 2.87702 4.27048 3.34011L2.71658 2.78799C2.6004 2.7469 2.47446 2.74214 2.35551 2.77433C2.23655 2.80653 2.13021 2.87416 2.05062 2.96824L2.01647 3.00808C1.35951 3.78242 0.847291 4.66869 0.504301 5.62449L0.487225 5.67382C0.401845 5.91098 0.472046 6.17661 0.663676 6.34168L1.9216 7.41556C1.86278 7.77226 1.83432 8.13654 1.83432 8.49893C1.83432 8.86322 1.86278 9.2275 1.9216 9.5823L0.663676 10.6562C0.56994 10.7364 0.502852 10.8433 0.471333 10.9626C0.439814 11.0819 0.445357 11.208 0.487225 11.324L0.504301 11.3734C0.847716 12.3296 1.3562 13.2119 2.01647 13.9898L2.05062 14.0296C2.13041 14.1234 2.23675 14.1909 2.35564 14.2231C2.47452 14.2552 2.60036 14.2506 2.71658 14.2099L4.27048 13.6577C4.83589 14.1226 5.46769 14.4907 6.14883 14.7468L6.44861 16.3671C6.47108 16.4885 6.52995 16.6001 6.61738 16.6872C6.70482 16.7743 6.81668 16.8327 6.93812 16.8547L6.98935 16.8642C7.98693 17.0435 9.0085 17.0435 10.0061 16.8642L10.0573 16.8547C10.1787 16.8327 10.2906 16.7743 10.3781 16.6872C10.4655 16.6001 10.5244 16.4885 10.5468 16.3671L10.8447 14.7544C11.5313 14.497 12.1704 14.1278 12.7363 13.6615L14.2789 14.2099C14.395 14.251 14.521 14.2557 14.6399 14.2235C14.7589 14.1913 14.8652 14.1237 14.9448 14.0296L14.979 13.9898C15.6392 13.21 16.1477 12.3296 16.4911 11.3734L16.5082 11.324C16.5936 11.0907 16.5234 10.825 16.3318 10.66ZM13.7419 7.62806C13.7893 7.91456 13.814 8.20864 13.814 8.50272C13.814 8.79681 13.7893 9.09089 13.7419 9.37739L13.6167 10.1382L15.034 11.3506C14.8191 11.8456 14.5479 12.3142 14.2257 12.747L12.465 12.1228L11.8693 12.6123C11.4158 12.9842 10.9111 13.2764 10.3647 13.4813L9.6418 13.7526L9.30218 15.593C8.76632 15.6537 8.22532 15.6537 7.68946 15.593L7.34984 13.7488L6.63265 13.4737C6.09191 13.2688 5.58912 12.9766 5.13946 12.6066L4.5437 12.1152L2.7716 12.7451C2.44906 12.3106 2.17964 11.842 1.96334 11.3487L3.39582 10.1249L3.27249 9.36601C3.22696 9.08331 3.20229 8.79112 3.20229 8.50272C3.20229 8.21243 3.22506 7.92214 3.27249 7.63944L3.39582 6.88051L1.96334 5.65674C2.17774 5.16154 2.44906 4.6948 2.7716 4.26031L4.5437 4.89022L5.13946 4.39882C5.58912 4.02884 6.09191 3.73665 6.63265 3.53174L7.35173 3.26043L7.69135 1.41623C8.2245 1.35551 8.76903 1.35551 9.30408 1.41623L9.6437 3.25663L10.3666 3.52795C10.9111 3.73286 11.4177 4.02505 11.8712 4.39692L12.4669 4.88643L14.2276 4.26221C14.5502 4.6967 14.8196 5.16534 15.0359 5.65864L13.6186 6.87103L13.7419 7.62806ZM8.49961 4.97371C6.65542 4.97371 5.16033 6.4688 5.16033 8.31299C5.16033 10.1572 6.65542 11.6523 8.49961 11.6523C10.3438 11.6523 11.8389 10.1572 11.8389 8.31299C11.8389 6.4688 10.3438 4.97371 8.49961 4.97371ZM10.0023 9.81567C9.8052 10.0133 9.57098 10.1701 9.31309 10.2769C9.0552 10.3837 8.77874 10.4384 8.49961 10.438C7.93231 10.438 7.39917 10.216 6.99693 9.81567C6.79928 9.61858 6.64254 9.38436 6.53574 9.12647C6.42894 8.86858 6.37418 8.59212 6.37461 8.31299C6.37461 7.74569 6.5966 7.21255 6.99693 6.81031C7.39917 6.40808 7.93231 6.18799 8.49961 6.18799C9.06691 6.18799 9.60006 6.40808 10.0023 6.81031C10.1999 7.0074 10.3567 7.24163 10.4635 7.49952C10.5703 7.75741 10.625 8.03386 10.6246 8.31299C10.6246 8.88029 10.4026 9.41344 10.0023 9.81567Z" fill="black" fill-opacity="0.85"/>
</g>
<defs>
<clipPath id="clip0_377_442">
<rect width="17" height="17" fill="white"/>
</clipPath>
</defs>
</svg>
