<svg width="24" height="22" viewBox="0 0 24 22" fill="none" xmlns="http://www.w3.org/2000/svg">
<path d="M1.62695 16.727V20.6173C1.62695 20.854 1.81925 21.0512 2.06086 21.0512H5.06861C5.30529 21.0512 5.50252 20.8589 5.50252 20.6173V13.7734L3.3182 15.9578C2.85471 16.4163 2.26302 16.6826 1.62695 16.727Z" fill="#FFBD00"/>
<path d="M7.00195 13.7246V20.6178C7.00195 20.8545 7.19425 21.0517 7.43586 21.0517H10.4436C10.6803 21.0517 10.8775 20.8594 10.8775 20.6178V16.5598C10.1921 16.545 9.55115 16.2738 9.06793 15.7906L7.00195 13.7246Z" fill="#FFBD00"/>
<path d="M12.376 16.1296V20.6166C12.376 20.8533 12.5683 21.0505 12.8099 21.0505H15.8176C16.0543 21.0505 16.2515 20.8582 16.2515 20.6166V12.3379L12.805 15.7845C12.6718 15.9176 12.5288 16.031 12.376 16.1296Z" fill="#FFBD00"/>
<path d="M21.3356 7.25L17.751 10.8347V20.6172C17.751 20.8539 17.9433 21.0512 18.1849 21.0512H21.1926C21.4293 21.0512 21.6265 20.8589 21.6265 20.6172V7.52119C21.5279 7.43737 21.454 7.36341 21.3997 7.3141L21.3356 7.25Z" fill="#FFBD00"/>
<path d="M23.7958 0.899714C23.6528 0.746861 23.4358 0.667969 23.1597 0.667969C23.135 0.667969 23.1055 0.667969 23.0808 0.667969C21.6805 0.732068 20.2851 0.801099 18.8847 0.865198C18.6974 0.87506 18.441 0.884921 18.2388 1.08708C18.1747 1.15118 18.1254 1.22514 18.086 1.3139C17.8789 1.76259 18.1698 2.05351 18.3078 2.19157L18.6579 2.54658C18.8995 2.79312 19.1461 3.03966 19.3926 3.28126L10.9315 11.7473L7.12986 7.94575C6.90304 7.71893 6.59733 7.59073 6.27191 7.59073C5.94648 7.59073 5.6457 7.71893 5.41889 7.94575L0.355014 13.0047C-0.118338 13.478 -0.118338 14.2423 0.355014 14.7157L0.581828 14.9425C0.808642 15.1693 1.11435 15.2975 1.43978 15.2975C1.76521 15.2975 2.06598 15.1693 2.2928 14.9425L6.27191 10.9634L10.0735 14.765C10.3003 14.9918 10.606 15.12 10.9315 15.12C11.2569 15.12 11.5577 14.9918 11.7894 14.765L21.3353 5.21904L22.4152 6.29395C22.5434 6.42215 22.7209 6.59965 22.9921 6.59965C23.1055 6.59965 23.2189 6.57007 23.3372 6.50597C23.4161 6.46159 23.4851 6.41228 23.5443 6.35312C23.7563 6.14109 23.7958 5.8699 23.8056 5.65788C23.8451 4.75062 23.8895 3.84337 23.9338 2.93118L23.9979 1.56536C24.0127 1.27938 23.9486 1.0575 23.7958 0.899714Z" fill="#FFBD00"/>
</svg>
