<svg width="48" height="48" viewBox="0 0 48 48" fill="none" xmlns="http://www.w3.org/2000/svg">
<g clip-path="url(#clip0_436_121)">
<path d="M47.1267 22.0314C47.9635 20.726 48.2134 19.1183 47.8121 17.6205C47.4108 16.1225 46.3905 14.8551 45.013 14.1428C43.7507 13.4904 42.9777 12.1515 43.0437 10.732C43.1158 9.18295 42.5282 7.66564 41.4318 6.56918C40.3354 5.47282 38.818 4.88545 37.2689 4.95726C37.0454 4.96776 36.8202 4.95754 36.5989 4.92689C36.0864 4.85545 35.6125 5.21396 35.5418 5.72698C35.4707 6.23991 35.8289 6.71328 36.3419 6.78416C36.6768 6.83057 37.0181 6.84594 37.3561 6.83028C38.3928 6.78144 39.3708 7.16011 40.1058 7.89505C40.8408 8.62999 41.219 9.60653 41.1706 10.6448C41.0707 12.7938 42.2409 14.8207 44.1519 15.8085C45.0753 16.2859 45.7319 17.1016 46.0009 18.1056C46.2699 19.1096 46.1091 20.1443 45.5482 21.0192C44.3871 22.8303 44.3871 25.1709 45.5482 26.982C46.1091 27.8569 46.2699 28.8917 46.0009 29.8956C45.7319 30.8996 45.0753 31.7154 44.152 32.1927C42.2409 33.1806 41.0707 35.2074 41.1706 37.3565C41.219 38.3947 40.8407 39.3713 40.1058 40.1062C39.371 40.8412 38.3954 41.2202 37.3561 41.171C35.2054 41.0726 33.1802 42.2413 32.1924 44.1522C31.715 45.0756 30.8992 45.7323 29.8952 46.0013C28.8911 46.2703 27.8565 46.1096 26.9816 45.5485C25.1706 44.3877 22.8302 44.3873 21.0189 45.5485C20.144 46.1096 19.1095 46.2704 18.1053 46.0013C17.1012 45.7323 16.2855 45.0756 15.8082 44.1523C14.8203 42.2413 12.7952 41.0729 10.6444 41.171C9.60494 41.2185 8.62962 40.841 7.89468 40.1062C7.15974 39.3713 6.78154 38.3947 6.82991 37.3565C6.92976 35.2074 5.75961 33.1806 3.84862 32.1928C2.92524 31.7154 2.26858 30.8996 1.9996 29.8956C1.73062 28.8917 1.89141 27.8569 2.45234 26.982C3.61339 25.171 3.61339 22.8304 2.45234 21.0192C1.89141 20.1443 1.73062 19.1096 1.9996 18.1056C2.26858 17.1016 2.92524 16.2859 3.84853 15.8086C5.75961 14.8207 6.92976 12.7938 6.82991 10.6448C6.78154 9.60653 7.15983 8.62999 7.89468 7.89505C8.62971 7.16011 9.60626 6.78181 10.6444 6.83028C12.7971 6.92948 14.8203 5.75999 15.8081 3.84899C16.2855 2.92561 17.1012 2.26895 18.1053 1.99997C19.1094 1.73081 20.1439 1.89178 21.019 2.45271C22.8299 3.61367 25.1705 3.61367 26.9815 2.45271C27.7149 1.98254 28.5919 1.78987 29.4517 1.90988C29.9643 1.98244 30.4382 1.62393 30.5099 1.11109C30.5816 0.598254 30.2239 0.124514 29.7111 0.052886C28.4086 -0.129372 27.0798 0.162485 25.9696 0.874173C24.7732 1.64108 23.2272 1.64118 22.0309 0.874079C20.7256 0.0372291 19.118 -0.212438 17.62 0.188642C16.1221 0.590004 14.8546 1.61024 14.1424 2.98777C13.4899 4.25007 12.15 5.02458 10.7315 4.95708C9.18033 4.88573 7.66517 5.47263 6.56871 6.56899C5.47226 7.66554 4.8847 9.18277 4.9568 10.7318C5.0228 12.1513 4.2498 13.4902 2.9874 14.1427C1.60996 14.8549 0.589726 16.1224 0.188364 17.6203C-0.212904 19.1181 0.0369511 20.7258 0.873895 22.0312C1.6409 23.2275 1.6409 24.7735 0.873801 25.9698C0.0369511 27.2753 -0.212904 28.883 0.188364 30.3808C0.589726 31.8787 1.60996 33.1462 2.98749 33.8584C4.2498 34.5108 5.0228 35.8497 4.9568 37.2693C4.8847 38.8183 5.47226 40.3355 6.56871 41.4321C7.66526 42.5286 9.18324 43.1161 10.7315 43.044C12.1495 42.9773 13.4898 43.751 14.1425 45.0134C14.8546 46.3908 16.1221 47.411 17.62 47.8124C18.0888 47.938 18.5683 47.9998 19.046 47.9998C20.0946 47.9998 21.134 47.7019 22.0309 47.127C23.2274 46.36 24.7734 46.36 25.9696 47.127C27.2749 47.9638 28.8826 48.2136 30.3805 47.8124C31.8784 47.411 33.1459 46.3908 33.8581 45.0133C34.5107 43.751 35.8497 42.9775 37.269 43.044C38.8202 43.1148 40.3352 42.5284 41.4318 41.4321C42.5282 40.3356 43.1158 38.8183 43.0437 37.2693C42.9777 35.8497 43.7507 34.5108 45.0131 33.8583C46.3905 33.1462 47.4108 31.8787 47.8121 30.3808C48.2134 28.883 47.9635 27.2753 47.1266 25.9698C46.3597 24.7737 46.3597 23.2276 47.1267 22.0314Z" fill="#EB143A"/>
<path d="M24.0005 42.2137C28.8654 42.2137 33.4391 40.3192 36.879 36.8793C37.2451 36.5131 37.2451 35.9195 36.879 35.5533C36.5128 35.1873 35.9194 35.1873 35.5531 35.5533C32.4672 38.6392 28.3645 40.3386 24.0004 40.3386C19.6363 40.3386 15.5335 38.6392 12.4477 35.5533C12.0816 35.1875 11.4881 35.1873 11.1218 35.5533C10.7556 35.9194 10.7556 36.5131 11.1218 36.8793C14.562 40.3192 19.1357 42.2137 24.0005 42.2137Z" fill="#EB143A"/>
<path d="M24.0003 5.78766C19.1354 5.78766 14.5617 7.68215 11.1218 11.1221C10.7556 11.4882 10.7556 12.0818 11.1218 12.4481C11.488 12.8141 12.0814 12.8141 12.4477 12.4481C15.5335 9.36213 19.6363 7.66274 24.0004 7.66274C28.3645 7.66274 32.4672 9.36213 35.5531 12.4481C35.7362 12.6311 35.9761 12.7227 36.216 12.7227C36.4559 12.7227 36.6958 12.6311 36.8789 12.4481C37.2451 12.0819 37.2451 11.4883 36.8789 11.1221C33.4389 7.68215 28.8652 5.78766 24.0003 5.78766Z" fill="#EB143A"/>
<path d="M18.9131 22.1997C18.9131 20.6079 17.5686 19.3129 15.916 19.3129H14.2041C14.2038 19.3129 14.2033 19.313 14.2029 19.313C14.2025 19.313 14.2021 19.3129 14.2017 19.3129C13.684 19.3129 13.2642 19.7328 13.2642 20.2505V27.7508C13.2642 28.2685 13.684 28.6883 14.2017 28.6883C14.7194 28.6883 15.1392 28.2685 15.1392 27.7508V25.9472L17.2718 28.3701C17.4571 28.5807 17.7158 28.6883 17.976 28.6883C18.196 28.6883 18.4169 28.6114 18.595 28.4546C18.9837 28.1125 19.0215 27.5201 18.6794 27.1315L16.7732 24.9656C18.0093 24.6096 18.9131 23.5047 18.9131 22.1997ZM15.916 23.2114C15.7126 23.2114 15.4285 23.2126 15.1503 23.214C15.1483 22.8366 15.1456 21.5839 15.1445 21.188H15.916C16.5242 21.188 17.038 21.6512 17.038 22.1997C17.038 22.7482 16.5242 23.2114 15.916 23.2114Z" fill="#EB143A"/>
<path d="M8.89754 19.3129H6.71879C6.20108 19.3129 5.78125 19.7328 5.78125 20.2505V27.7508C5.78125 28.0002 5.88063 28.2393 6.05726 28.4152C6.23305 28.5902 6.47091 28.6883 6.71879 28.6883H6.72292C6.72292 28.6883 8.72588 28.6794 9.278 28.6794C10.9082 28.6794 12.2343 27.3532 12.2343 25.723C12.2343 24.7945 11.8037 23.9651 11.1322 23.4226C11.4029 23.0058 11.5609 22.5093 11.5609 21.9763C11.5609 20.5078 10.3661 19.3129 8.89754 19.3129ZM8.89754 21.188C9.33228 21.188 9.68583 21.5416 9.68583 21.9763C9.68583 22.411 9.33228 22.7646 8.89754 22.7646C8.73732 22.7646 7.65643 22.7665 7.65643 22.7665V21.1879H8.89754V21.188ZM9.278 26.8045C8.97939 26.8045 8.25805 26.807 7.65633 26.8094V24.6435C7.80671 24.6429 9.278 24.6418 9.278 24.6418C9.87418 24.6418 10.3593 25.1269 10.3593 25.7231C10.3593 26.3194 9.87418 26.8045 9.278 26.8045Z" fill="#EB143A"/>
<path d="M42.2187 24.0006C42.2187 21.1968 40.6247 19.3129 38.2522 19.3129H36.9009C36.652 19.3129 36.4132 19.4119 36.2373 19.5882C36.0615 19.7644 35.9629 20.0033 35.9634 20.2522C35.9634 20.2523 35.9785 27.7271 35.9786 27.7543C35.9795 28.0036 36.0796 28.2422 36.2569 28.4175C36.4324 28.5911 36.6694 28.6884 36.9161 28.6884H36.9231C36.9311 28.6883 37.7273 28.6823 38.3308 28.6718C40.5835 28.6324 42.2187 26.6678 42.2187 24.0006ZM37.8505 26.8036C37.8477 25.9161 37.8417 22.11 37.8402 21.1881H38.2523C39.2633 21.1881 40.3437 21.927 40.3437 24.0007C40.3437 25.3747 39.7112 26.7723 38.2982 26.797C38.1555 26.7995 38.0018 26.8016 37.8505 26.8036Z" fill="#EB143A"/>
<path d="M20.4909 28.6392C20.5903 28.6727 20.6912 28.6886 20.7905 28.6886C21.1818 28.6886 21.5468 28.4417 21.6788 28.0503L21.8799 27.4538H24.9445L25.143 28.0478C25.307 28.5389 25.8378 28.8041 26.3292 28.64C26.8203 28.476 27.0854 27.9449 26.9213 27.4538L24.451 20.0587C24.4484 20.0508 24.4456 20.0428 24.4428 20.0349C24.2854 19.603 23.8755 19.3129 23.4226 19.3129C23.4222 19.3129 23.4219 19.3129 23.4215 19.3129C22.968 19.3134 22.5582 19.6044 22.4017 20.0373C22.3994 20.0436 22.3971 20.0502 22.395 20.0567L19.9019 27.4514C19.7366 27.9421 20.0002 28.4738 20.4909 28.6392ZM23.4192 22.888L24.3182 25.5787H22.5121L23.4192 22.888Z" fill="#EB143A"/>
<path d="M29.6636 27.7553V23.3231L32.9062 28.1236C33.1783 28.5258 33.6372 28.6989 34.0746 28.5647C34.5216 28.4276 34.8105 28.0106 34.8105 27.5023V20.2461C34.8105 19.7283 34.3907 19.3085 33.8729 19.3085C33.3552 19.3085 32.9354 19.7283 32.9354 20.2461V24.8169L29.5031 19.7354C29.2723 19.3938 28.8458 19.243 28.4517 19.3636C28.0576 19.4843 27.7886 19.8481 27.7886 20.2601V27.7553C27.7886 28.273 28.2084 28.6929 28.7261 28.6929C29.2438 28.6929 29.6636 28.2731 29.6636 27.7553Z" fill="#EB143A"/>
<path d="M21.6453 14.5028C21.8191 14.8035 22.1341 14.9717 22.4582 14.9717C22.6172 14.9717 22.7783 14.9311 22.926 14.8459L23.0626 14.767V14.9248C23.0626 15.4425 23.4824 15.8624 24.0002 15.8624C24.5179 15.8624 24.9377 15.4425 24.9377 14.9248V14.767L25.0744 14.8459C25.2221 14.9311 25.3832 14.9717 25.5422 14.9717C25.8662 14.9717 26.1814 14.8035 26.3551 14.5028C26.614 14.0543 26.4604 13.4809 26.0119 13.2221L25.8753 13.1432L26.0119 13.0644C26.4604 12.8055 26.614 12.2321 26.3551 11.7837C26.0962 11.3354 25.5232 11.1817 25.0744 11.4406L24.9377 11.5195V11.3616C24.9377 10.8439 24.5179 10.4241 24.0002 10.4241C23.4824 10.4241 23.0626 10.8439 23.0626 11.3616V11.5194L22.926 11.4406C22.4775 11.1817 21.9042 11.3353 21.6453 11.7837C21.3864 12.2321 21.54 12.8055 21.9885 13.0644L22.1251 13.1432L21.9885 13.2221C21.54 13.4808 21.3865 14.0543 21.6453 14.5028Z" fill="#EB143A"/>
<path d="M26.3551 33.4986C26.0962 33.0502 25.5232 32.8965 25.0744 33.1554L24.9377 33.2344V33.0765C24.9377 32.5588 24.5179 32.1389 24.0002 32.1389C23.4824 32.1389 23.0626 32.5588 23.0626 33.0765V33.2343L22.926 33.1554C22.4775 32.8965 21.9042 33.0502 21.6453 33.4986C21.3864 33.947 21.54 34.5204 21.9885 34.7792L22.1251 34.8581L21.9885 34.9369C21.54 35.1958 21.3864 35.7692 21.6453 36.2176C21.8191 36.5184 22.1341 36.6866 22.4582 36.6866C22.6172 36.6866 22.7783 36.646 22.926 36.5608L23.0626 36.4819V36.6397C23.0626 37.1574 23.4824 37.5773 24.0002 37.5773C24.5179 37.5773 24.9377 37.1574 24.9377 36.6397V36.4818L25.0744 36.5608C25.2221 36.646 25.3832 36.6866 25.5422 36.6866C25.8662 36.6866 26.1814 36.5184 26.3551 36.2176C26.614 35.7692 26.4604 35.1958 26.0119 34.9369L25.8753 34.8581L26.0119 34.7792C26.4604 34.5205 26.6139 33.947 26.3551 33.4986Z" fill="#EB143A"/>
<path d="M33.0254 4.35603C33.5432 4.35603 33.9629 3.93629 33.9629 3.41853C33.9629 2.90076 33.5432 2.48103 33.0254 2.48103C32.5076 2.48103 32.0879 2.90076 32.0879 3.41853C32.0879 3.93629 32.5076 4.35603 33.0254 4.35603Z" fill="#EB143A"/>
</g>
<defs>
<clipPath id="clip0_436_121">
<rect width="48" height="48" fill="white"/>
</clipPath>
</defs>
</svg>
