<svg width="48" height="48" viewBox="0 0 48 48" fill="none" xmlns="http://www.w3.org/2000/svg">
<path d="M45.75 33.3127V6.60938C45.75 5.03269 44.4672 3.75 42.8906 3.75H36.0938V2.8125C36.0938 1.26169 34.8321 0 33.2812 0C31.7304 0 30.4688 1.26169 30.4688 2.8125V3.75H15.2812V2.8125C15.2812 1.26169 14.0196 0 12.4688 0C10.9179 0 9.65625 1.26169 9.65625 2.8125V3.75H2.85938C1.28278 3.75 0 5.03269 0 6.60938V41.3906C0 42.9673 1.28278 44.25 2.85938 44.25H15.6376C16.1553 44.25 16.5751 43.8303 16.5751 43.3125C16.5751 42.7947 16.1553 42.375 15.6376 42.375H2.85938C2.31656 42.375 1.875 41.9334 1.875 41.3906V6.60938C1.875 6.06656 2.31656 5.625 2.85938 5.625H9.65625V6.5625C9.65625 8.11331 10.9179 9.375 12.4688 9.375C14.0196 9.375 15.2812 8.11331 15.2812 6.5625V5.625H30.4688V6.5625C30.4688 8.11331 31.7304 9.375 33.2812 9.375C34.8321 9.375 36.0938 8.11331 36.0938 6.5625V5.625H42.8906C43.4334 5.625 43.875 6.06656 43.875 6.60938V11.25H8.4375C7.91981 11.25 7.5 11.6697 7.5 12.1875C7.5 12.7053 7.91981 13.125 8.4375 13.125H43.875V31.7285C43.0768 31.225 42.1927 30.8463 41.25 30.6193V16.6875C41.25 16.1697 40.8302 15.75 40.3125 15.75H5.4375C4.91981 15.75 4.5 16.1697 4.5 16.6875V38.8125C4.5 39.3303 4.91981 39.75 5.4375 39.75H30.3935C30.4517 40.6702 30.6515 41.5523 30.9718 42.375H23.1375C22.6198 42.375 22.2 42.7947 22.2 43.3125C22.2 43.8303 22.6198 44.25 23.1375 44.25H31.9784C33.5747 46.5163 36.2109 48 39.1875 48C44.0467 48 48 44.0467 48 39.1875C48 36.9324 47.1482 34.8729 45.75 33.3127ZM13.4062 6.5625C13.4062 7.07944 12.9857 7.5 12.4688 7.5C11.9518 7.5 11.5312 7.07944 11.5312 6.5625V2.8125C11.5312 2.29556 11.9518 1.875 12.4688 1.875C12.9857 1.875 13.4062 2.29556 13.4062 2.8125V6.5625ZM34.2188 6.5625C34.2188 7.07944 33.7982 7.5 33.2812 7.5C32.7643 7.5 32.3438 7.07944 32.3438 6.5625V2.8125C32.3438 2.29556 32.7643 1.875 33.2812 1.875C33.7982 1.875 34.2188 2.29556 34.2188 2.8125V6.5625ZM39.1875 30.375C38.7517 30.375 38.3232 30.4073 37.9041 30.4688H34.275V25.0312H39.375V30.3773C39.3127 30.376 39.2502 30.375 39.1875 30.375ZM30.4728 37.875H27.3V32.3438H32.4V33.5732C31.4003 34.7797 30.7156 36.256 30.4728 37.875ZM6.375 25.0312H11.475V30.4688H6.375V25.0312ZM13.35 25.0312H18.45V30.4688H13.35V25.0312ZM27.3 25.0312H32.4V30.4688H27.3V25.0312ZM25.425 30.4688H20.325V25.0312H25.425V30.4688ZM27.3 23.1562V17.625H32.4V23.1562H27.3ZM25.425 23.1562H20.325V17.625H25.425V23.1562ZM18.45 23.1562H13.35V17.625H18.45V23.1562ZM18.45 32.3438V37.875H13.35V32.3438H18.45ZM20.325 32.3438H25.425V37.875H20.325V32.3438ZM39.375 23.1562H34.275V17.625H39.375V23.1562ZM11.475 17.625V23.1562H6.375V17.625H11.475ZM6.375 32.3438H11.475V37.875H6.375V32.3438ZM39.1875 46.125C35.3621 46.125 32.25 43.0129 32.25 39.1875C32.25 35.3621 35.3621 32.25 39.1875 32.25C43.0129 32.25 46.125 35.3621 46.125 39.1875C46.125 43.0129 43.0129 46.125 39.1875 46.125Z" fill="#EB143A"/>
<path d="M41.8996 36.9152L39 39.8148L37.7098 38.5246C37.3438 38.1585 36.7504 38.1585 36.3839 38.5246C36.0179 38.8907 36.0179 39.4843 36.3839 39.8504L38.337 41.8035C38.5129 41.9793 38.7513 42.0781 38.9999 42.0781C39.2486 42.0781 39.487 41.9793 39.6628 41.8035L43.2253 38.241C43.5914 37.8749 43.5914 37.2813 43.2253 36.9151C42.8592 36.5491 42.2658 36.5491 41.8996 36.9152Z" fill="#EB143A"/>
<path d="M19.3877 42.375C19.1411 42.375 18.8993 42.4753 18.7249 42.6497C18.5506 42.8241 18.4502 43.0659 18.4502 43.3125C18.4502 43.5591 18.5505 43.8009 18.7249 43.9753C18.8993 44.1497 19.1411 44.25 19.3877 44.25C19.6343 44.25 19.8761 44.1497 20.0505 43.9753C20.2248 43.8009 20.3252 43.5591 20.3252 43.3125C20.3252 43.0659 20.2249 42.8241 20.0505 42.6497C19.8761 42.4753 19.6343 42.375 19.3877 42.375Z" fill="#EB143A"/>
<path d="M5.35022 12.8503C5.52469 12.6759 5.625 12.4341 5.625 12.1875C5.625 11.9409 5.52469 11.6991 5.35022 11.5247C5.17594 11.3503 4.93406 11.25 4.6875 11.25C4.43991 11.25 4.19906 11.3503 4.02469 11.5247C3.85031 11.6991 3.75 11.9409 3.75 12.1875C3.75 12.4341 3.85022 12.6759 4.02469 12.8503C4.19916 13.0247 4.43991 13.125 4.6875 13.125C4.93406 13.125 5.17594 13.0247 5.35022 12.8503Z" fill="#EB143A"/>
</svg>
