<svg width="48" height="48" viewBox="0 0 48 48" fill="none" xmlns="http://www.w3.org/2000/svg">
<path d="M38.4142 27.871H9.58603L6.48926 34.0645H9.29042V48H38.7098V34.0645H41.5109L38.4142 27.871ZM37.457 29.4194L39.0054 32.5161H26.8013L25.2529 29.4194H37.457ZM10.5432 29.4194H22.7473L21.1989 32.5161H8.9948L10.5432 29.4194ZM37.1614 46.4516H24.7743V41.0323H23.2259V46.4516H10.8388V34.0645H22.1561L23.2259 31.9245V38.7097H24.7743V31.9245L25.8441 34.0645H37.1614V46.4516Z" fill="#EB143A"/>
<path d="M12.3872 40.2581H17.0324V41.8064H12.3872V40.2581Z" fill="#EB143A"/>
<path d="M12.3872 43.3548H17.0324V44.9032H12.3872V43.3548Z" fill="#EB143A"/>
<path d="M18.5806 43.3548H20.129V44.9032H18.5806V43.3548Z" fill="#EB143A"/>
<path d="M20.4247 12.5916L24 11.6802L27.5754 12.5909L27.8555 8.75164L29.7547 5.50744L26.3956 4.05356L24 1.09174L21.6038 4.05356L18.2446 5.50744L20.1438 8.75164L20.4247 12.5916ZM22.5685 5.32258L24 3.55343L25.4316 5.32334L27.5357 6.23476L26.3381 8.28062L26.1661 10.635L24 10.083L21.834 10.6342L21.662 8.27987L20.4644 6.23362L22.5685 5.32258Z" fill="#EB143A"/>
<path d="M8.50039 14.1717L9.62539 12.251L7.63245 11.3876L6.19331 9.60786L4.75417 11.3868L2.76123 12.2503L3.88623 14.171L4.05256 16.4618L6.19331 15.9175L8.33482 16.4626L8.50039 14.1717ZM6.983 13.6992L6.92403 14.5052L6.19331 14.3196L5.46335 14.5052L5.40362 13.6992L4.98023 12.9753L5.71814 12.6559L6.19331 12.0696L6.66773 12.6566L7.40564 12.9764L6.983 13.6992Z" fill="#EB143A"/>
<path d="M44.1137 14.1717L45.2387 12.251L43.2457 11.3876L41.8066 9.60786L40.3675 11.3868L38.3745 12.2503L39.4995 14.171L39.6658 16.4618L41.8066 15.9175L43.9481 16.4626L44.1137 14.1717ZM42.5963 13.6992L42.5373 14.5052L41.8066 14.3196L41.0766 14.5052L41.0177 13.6992L40.5943 12.9753L41.3322 12.6559L41.8066 12.0696L42.281 12.6566L43.0189 12.9764L42.5963 13.6992Z" fill="#EB143A"/>
<path d="M9.63484 18.4506C11.1091 19.4338 12.419 20.6337 13.5255 22.018L16.592 25.8497L15.9577 20.777C15.6265 18.1285 14.212 15.6907 12.0769 14.0897L11.3352 13.5336L9.06592 18.0711L9.63484 18.4506ZM11.8663 15.9345C13.1754 17.1733 14.0634 18.8222 14.3677 20.6061C13.3898 19.4577 12.2803 18.4344 11.0573 17.5524L11.8663 15.9345Z" fill="#EB143A"/>
<path d="M32.0425 20.777L31.4082 25.8497L34.4747 22.0173C35.582 20.6329 36.8911 19.4331 38.3654 18.4498L38.9335 18.0703L36.6643 13.5329L35.9226 14.0905C33.7882 15.6914 32.3729 18.1285 32.0425 20.777ZM36.9429 17.5524C35.7199 18.4343 34.6097 19.4569 33.6325 20.6061C33.9376 18.8222 34.8248 17.1733 36.1339 15.9345L36.9429 17.5524Z" fill="#EB143A"/>
<path d="M27.0967 26.3226H28.6451V23.0788C28.6451 19.3601 29.9557 15.7402 32.3372 12.8827L31.1472 11.8915C28.5351 15.0265 27.0967 18.9995 27.0967 23.0788V26.3226Z" fill="#EB143A"/>
<path d="M32.5161 9.29032H34.0645V10.8387H32.5161V9.29032Z" fill="#EB143A"/>
<path d="M34.8389 6.19355H36.3873V7.74194H34.8389V6.19355Z" fill="#EB143A"/>
<path d="M19.355 26.3226H20.9034V23.0788C20.9034 18.9987 19.465 15.0265 16.8536 11.8915L15.6636 12.8827C18.0444 15.7402 19.355 19.3601 19.355 23.0788V26.3226Z" fill="#EB143A"/>
<path d="M13.9355 9.29032H15.4839V10.8387H13.9355V9.29032Z" fill="#EB143A"/>
<path d="M11.6128 6.19355H13.1612V7.74194H11.6128V6.19355Z" fill="#EB143A"/>
<path d="M23.2256 13.1613H24.774V14.7097H23.2256V13.1613Z" fill="#EB143A"/>
<path d="M23.2256 16.2581H24.774V26.3226H23.2256V16.2581Z" fill="#EB143A"/>
<path d="M44.9033 20.9032H46.4517V22.4516H44.9033V20.9032Z" fill="#EB143A"/>
<path d="M44.9033 24H46.4517V25.5484H44.9033V24Z" fill="#EB143A"/>
<path d="M46.4517 22.4516H48V24H46.4517V22.4516Z" fill="#EB143A"/>
<path d="M43.355 22.4516H44.9034V24H43.355V22.4516Z" fill="#EB143A"/>
<path d="M42.5806 0H44.129V1.54839H42.5806V0Z" fill="#EB143A"/>
<path d="M42.5806 3.09678H44.129V4.64516H42.5806V3.09678Z" fill="#EB143A"/>
<path d="M44.1289 1.54839H45.6773V3.09677H44.1289V1.54839Z" fill="#EB143A"/>
<path d="M41.0322 1.54839H42.5806V3.09677H41.0322V1.54839Z" fill="#EB143A"/>
<path d="M1.54834 24H3.09673V25.5484H1.54834V24Z" fill="#EB143A"/>
<path d="M1.54834 27.0968H3.09673V28.6452H1.54834V27.0968Z" fill="#EB143A"/>
<path d="M3.09668 25.5484H4.64507V27.0968H3.09668V25.5484Z" fill="#EB143A"/>
<path d="M0 25.5484H1.54839V27.0968H0V25.5484Z" fill="#EB143A"/>
<path d="M1.54834 0H3.09673V1.54839H1.54834V0Z" fill="#EB143A"/>
<path d="M1.54834 3.09678H3.09673V4.64516H1.54834V3.09678Z" fill="#EB143A"/>
<path d="M3.09668 1.54839H4.64507V3.09677H3.09668V1.54839Z" fill="#EB143A"/>
<path d="M0 1.54839H1.54839V3.09677H0V1.54839Z" fill="#EB143A"/>
</svg>
